<svg width="63" height="15" viewBox="0 0 63 15" fill="none" xmlns="http://www.w3.org/2000/svg">
<path d="M50.3275 6.15417V14.5721H47.974V4.00574H50.1908L50.3275 6.15417ZM49.9467 8.89832L49.1459 8.88855C49.1459 8.15938 49.237 7.48555 49.4193 6.86707C49.6016 6.24858 49.8685 5.71147 50.2201 5.25574C50.5717 4.7935 51.0079 4.43868 51.5287 4.19128C52.056 3.93738 52.6648 3.81042 53.3549 3.81042C53.8366 3.81042 54.2761 3.88204 54.6732 4.02527C55.0769 4.16199 55.4252 4.38009 55.7181 4.67957C56.0176 4.97904 56.2455 5.36316 56.4017 5.83191C56.5645 6.30066 56.6459 6.86707 56.6459 7.53113V14.5721H54.2924V7.73621C54.2924 7.22188 54.2142 6.81824 54.058 6.52527C53.9082 6.2323 53.6901 6.02397 53.4037 5.90027C53.1237 5.77006 52.7885 5.70496 52.3978 5.70496C51.9551 5.70496 51.5775 5.78959 51.265 5.95886C50.959 6.12813 50.7084 6.35925 50.5131 6.65222C50.3177 6.94519 50.1745 7.28373 50.0834 7.66785C49.9922 8.05196 49.9467 8.46212 49.9467 8.89832ZM56.4994 8.27332L55.3959 8.51746C55.3959 7.87944 55.4838 7.27722 55.6595 6.71082C55.8418 6.1379 56.1055 5.6366 56.4506 5.20691C56.8021 4.77071 57.2351 4.42891 57.7494 4.18152C58.2637 3.93412 58.8529 3.81042 59.517 3.81042C60.0573 3.81042 60.5391 3.88529 60.9623 4.03503C61.392 4.17826 61.7566 4.40613 62.056 4.71863C62.3555 5.03113 62.5834 5.43803 62.7396 5.93933C62.8959 6.43412 62.974 7.03308 62.974 7.73621V14.5721H60.6107V7.72644C60.6107 7.19259 60.5326 6.77917 60.3763 6.48621C60.2266 6.19324 60.0118 5.99141 59.7318 5.88074C59.4519 5.76355 59.1166 5.70496 58.726 5.70496C58.3614 5.70496 58.0391 5.77332 57.7592 5.91003C57.4857 6.04024 57.2546 6.22579 57.0658 6.46667C56.877 6.70105 56.7338 6.97123 56.6361 7.27722C56.545 7.58321 56.4994 7.91524 56.4994 8.27332Z" fill="white"/>
<path d="M36.2971 9.40613V9.18152C36.2971 8.4198 36.4078 7.71342 36.6292 7.06238C36.8505 6.40483 37.1695 5.83516 37.5862 5.35339C38.0094 4.86511 38.5237 4.48751 39.1292 4.22058C39.7411 3.94714 40.4312 3.81042 41.1995 3.81042C41.9742 3.81042 42.6643 3.94714 43.2698 4.22058C43.8818 4.48751 44.3993 4.86511 44.8225 5.35339C45.2457 5.83516 45.568 6.40483 45.7893 7.06238C46.0107 7.71342 46.1213 8.4198 46.1213 9.18152V9.40613C46.1213 10.1678 46.0107 10.8742 45.7893 11.5253C45.568 12.1763 45.2457 12.746 44.8225 13.2343C44.3993 13.716 43.885 14.0936 43.2795 14.3671C42.6741 14.634 41.9872 14.7675 41.219 14.7675C40.4443 14.7675 39.7509 14.634 39.1389 14.3671C38.5334 14.0936 38.0191 13.716 37.5959 13.2343C37.1728 12.746 36.8505 12.1763 36.6292 11.5253C36.4078 10.8742 36.2971 10.1678 36.2971 9.40613ZM38.6506 9.18152V9.40613C38.6506 9.88139 38.6995 10.3306 38.7971 10.7538C38.8948 11.177 39.0478 11.5481 39.2561 11.8671C39.4644 12.1861 39.7314 12.4367 40.0569 12.619C40.3824 12.8013 40.7698 12.8925 41.219 12.8925C41.6552 12.8925 42.0328 12.8013 42.3518 12.619C42.6773 12.4367 42.9443 12.1861 43.1526 11.8671C43.3609 11.5481 43.5139 11.177 43.6116 10.7538C43.7157 10.3306 43.7678 9.88139 43.7678 9.40613V9.18152C43.7678 8.71277 43.7157 8.27006 43.6116 7.85339C43.5139 7.43022 43.3577 7.05587 43.1428 6.73035C42.9345 6.40483 42.6676 6.15092 42.342 5.96863C42.023 5.77983 41.6422 5.68542 41.1995 5.68542C40.7568 5.68542 40.3726 5.77983 40.0471 5.96863C39.7281 6.15092 39.4644 6.40483 39.2561 6.73035C39.0478 7.05587 38.8948 7.43022 38.7971 7.85339C38.6995 8.27006 38.6506 8.71277 38.6506 9.18152Z" fill="white"/>
<path d="M32.4327 9.94324H34.8741C34.796 10.8742 34.5356 11.7043 34.0929 12.4335C33.6502 13.1561 33.0284 13.7258 32.2277 14.1425C31.4269 14.5591 30.4536 14.7675 29.3077 14.7675C28.4288 14.7675 27.6378 14.6112 26.9347 14.2987C26.2316 13.9797 25.6294 13.5305 25.1281 12.951C24.6267 12.3651 24.2426 11.6587 23.9757 10.8319C23.7153 10.0051 23.5851 9.08061 23.5851 8.05847V6.87683C23.5851 5.8547 23.7185 4.93022 23.9855 4.10339C24.2589 3.27657 24.6495 2.57019 25.1573 1.98425C25.6652 1.3918 26.2739 0.939331 26.9835 0.626831C27.6997 0.314331 28.5037 0.158081 29.3956 0.158081C30.5284 0.158081 31.4855 0.366414 32.2667 0.783081C33.048 1.19975 33.6534 1.77592 34.0831 2.5116C34.5193 3.24727 34.7863 4.09037 34.8839 5.04089H32.4425C32.3774 4.42891 32.2342 3.90483 32.0128 3.46863C31.798 3.03243 31.479 2.7004 31.0558 2.47253C30.6326 2.23816 30.0792 2.12097 29.3956 2.12097C28.8357 2.12097 28.3475 2.22514 27.9308 2.43347C27.5141 2.64181 27.1658 2.94779 26.8859 3.35144C26.6059 3.75509 26.3943 4.25313 26.2511 4.84558C26.1144 5.43152 26.046 6.10209 26.046 6.8573V8.05847C26.046 8.77462 26.1079 9.42566 26.2316 10.0116C26.3618 10.591 26.5571 11.0891 26.8175 11.5057C27.0844 11.9224 27.423 12.2447 27.8331 12.4725C28.2433 12.7004 28.7348 12.8143 29.3077 12.8143C30.0044 12.8143 30.5675 12.7037 30.9972 12.4823C31.4334 12.2609 31.7622 11.9387 31.9835 11.5155C32.2114 11.0858 32.3611 10.5617 32.4327 9.94324Z" fill="white"/>
<path d="M15.5898 0.353394V14.5721H13.1387V0.353394H15.5898ZM21.3906 6.5741V8.51746H14.9648V6.5741H21.3906ZM22.2012 0.353394V2.30652H14.9648V0.353394H22.2012Z" fill="white"/>
<path d="M4.32312 14.5721H1.28601L1.30554 12.6288H4.32312C5.20203 12.6288 5.9377 12.4367 6.53015 12.0526C7.12911 11.6685 7.57833 11.1184 7.87781 10.4022C8.1838 9.68608 8.33679 8.83321 8.33679 7.84363V7.07214C8.33679 6.30391 8.2489 5.62358 8.07312 5.03113C7.90385 4.43868 7.64994 3.94063 7.3114 3.53699C6.97937 3.13334 6.56921 2.82735 6.08093 2.61902C5.59916 2.41069 5.04252 2.30652 4.41101 2.30652H1.22742V0.353394H4.41101C5.35502 0.353394 6.21765 0.512899 6.9989 0.831909C7.78015 1.14441 8.45398 1.59688 9.02039 2.18933C9.5933 2.78178 10.0328 3.49141 10.3387 4.31824C10.6447 5.14506 10.7977 6.06954 10.7977 7.09167V7.84363C10.7977 8.86576 10.6447 9.79024 10.3387 10.6171C10.0328 11.4439 9.5933 12.1535 9.02039 12.746C8.44747 13.3319 7.76388 13.7844 6.9696 14.1034C6.18184 14.4159 5.29968 14.5721 4.32312 14.5721ZM2.64343 0.353394V14.5721H0.192261V0.353394H2.64343Z" fill="white"/>
</svg>
