<svg width="35" height="10" viewBox="0 0 35 10" fill="none" xmlns="http://www.w3.org/2000/svg">
<mask id="mask0_30_1556" style="mask-type:alpha" maskUnits="userSpaceOnUse" x="0" y="0" width="35" height="2">
<path d="M0.0924683 0.0302277H34.9075V1.93939H0.0924683V0.0302277Z" fill="#D9D9D9"/>
</mask>
<g mask="url(#mask0_30_1556)">
<path d="M34.3189 0.173737L34.7869 8.43574H33.7849L33.5269 4.12174C33.5149 3.82974 33.5029 3.53374 33.4909 3.23374C33.4789 2.93374 33.4709 2.64574 33.4669 2.36974C33.4629 2.09374 33.4609 1.84774 33.4609 1.63174C33.4609 1.41574 33.4609 1.24774 33.4609 1.12774L32.0689 6.95374H31.0249L29.5309 1.12774C29.5349 1.24374 29.5389 1.41574 29.5429 1.64374C29.5469 1.86774 29.5489 2.12174 29.5489 2.40574C29.5529 2.68974 29.5509 2.98174 29.5429 3.28174C29.5389 3.57774 29.5309 3.85374 29.5189 4.10974L29.2969 8.43574H28.3189L28.7869 0.173737H30.2389L31.5769 5.83174L32.8549 0.173737H34.3189Z" fill="#0F172A"/>
<path d="M27.3996 4.31373C27.3996 5.14573 27.2856 5.88373 27.0576 6.52773C26.8336 7.16773 26.4956 7.66973 26.0436 8.03373C25.5916 8.39373 25.0296 8.57373 24.3576 8.57373C23.6896 8.57373 23.1276 8.39773 22.6716 8.04573C22.2196 7.68973 21.8796 7.19373 21.6516 6.55773C21.4276 5.92173 21.3156 5.17773 21.3156 4.32573C21.3156 3.48973 21.4276 2.74973 21.6516 2.10573C21.8796 1.46173 22.2196 0.957733 22.6716 0.593733C23.1276 0.225733 23.6896 0.0417328 24.3576 0.0417328C25.0296 0.0417328 25.5916 0.219732 26.0436 0.575732C26.4956 0.931732 26.8336 1.42973 27.0576 2.06973C27.2856 2.70973 27.3996 3.45773 27.3996 4.31373ZM26.3076 4.31373C26.3076 3.21373 26.1556 2.37173 25.8516 1.78773C25.5516 1.20373 25.0536 0.911733 24.3576 0.911733C23.6616 0.911733 23.1616 1.20573 22.8576 1.79373C22.5576 2.38173 22.4076 3.22573 22.4076 4.32573C22.4076 5.42573 22.5636 6.26373 22.8756 6.83973C23.1876 7.41173 23.6816 7.69773 24.3576 7.69773C25.0536 7.69773 25.5516 7.40973 25.8516 6.83373C26.1556 6.25373 26.3076 5.41373 26.3076 4.31373Z" fill="#0F172A"/>
<path d="M17.8583 0.0417328C18.3983 0.0417328 18.8503 0.109733 19.2143 0.245733C19.5783 0.381732 19.9243 0.581733 20.2523 0.845733L19.6703 1.52373C19.4103 1.30373 19.1343 1.14773 18.8423 1.05573C18.5543 0.959733 18.2523 0.911733 17.9363 0.911733C17.4843 0.911733 17.0663 1.01973 16.6823 1.23573C16.2983 1.44773 15.9883 1.80173 15.7523 2.29773C15.5203 2.78973 15.4043 3.45773 15.4043 4.30173C15.4043 5.12173 15.5143 5.77973 15.7343 6.27573C15.9583 6.77173 16.2603 7.12973 16.6403 7.34973C17.0203 7.56973 17.4443 7.67973 17.9123 7.67973C18.3763 7.67973 18.7563 7.60973 19.0523 7.46973C19.3523 7.32973 19.6123 7.16973 19.8323 6.98973L20.3723 7.67373C20.1203 7.91773 19.7923 8.12973 19.3883 8.30973C18.9843 8.48573 18.4883 8.57373 17.9003 8.57373C17.2323 8.57373 16.6263 8.40973 16.0823 8.08173C15.5423 7.75373 15.1143 7.27373 14.7983 6.64173C14.4823 6.00573 14.3243 5.22573 14.3243 4.30173C14.3243 3.37373 14.4843 2.59373 14.8043 1.96173C15.1283 1.32973 15.5583 0.851732 16.0943 0.527732C16.6343 0.203732 17.2223 0.0417328 17.8583 0.0417328Z" fill="#0F172A"/>
<path d="M9.06093 1.02574V3.91774H12.3009V4.75774H9.06093V8.43574H8.02893V0.173737H12.8949L12.7689 1.02574H9.06093Z" fill="#0F172A"/>
<path d="M4.69164 4.26574C4.69164 3.54574 4.61564 2.96974 4.46364 2.53774C4.31165 2.10574 4.11165 1.78174 3.86365 1.56574C3.61565 1.34974 3.34365 1.20574 3.04765 1.13374C2.75565 1.06174 2.46764 1.02574 2.18365 1.02574H1.21164V7.60174H2.19565C2.49165 7.60174 2.78565 7.55574 3.07765 7.46374C3.37365 7.36774 3.64365 7.19974 3.88765 6.95974C4.13165 6.71574 4.32565 6.37774 4.46965 5.94574C4.61765 5.50974 4.69164 4.94974 4.69164 4.26574ZM5.80165 4.26574C5.80165 4.95374 5.72764 5.54174 5.57965 6.02974C5.43565 6.51374 5.23765 6.91374 4.98565 7.22974C4.73365 7.54574 4.44565 7.79174 4.12165 7.96774C3.80165 8.13974 3.46365 8.26174 3.10765 8.33374C2.75565 8.40174 2.40965 8.43574 2.06964 8.43574H0.173645V0.173737H1.93765C2.42165 0.173737 2.89164 0.227736 3.34765 0.335737C3.80765 0.443737 4.22165 0.643737 4.58965 0.935737C4.96165 1.22374 5.25565 1.63574 5.47165 2.17174C5.69165 2.70774 5.80165 3.40574 5.80165 4.26574Z" fill="#0F172A"/>
</g>
<mask id="mask1_30_1556" style="mask-type:alpha" maskUnits="userSpaceOnUse" x="0" y="2" width="35" height="4">
<path d="M0.0924683 2.93939H34.9075V5.60443H0.0924683V2.93939Z" fill="#D9D9D9"/>
</mask>
<g mask="url(#mask1_30_1556)">
<path d="M34.3189 0.173782L34.7869 8.43578H33.7849L33.5269 4.12178C33.5149 3.82978 33.5029 3.53378 33.4909 3.23378C33.4789 2.93378 33.4709 2.64578 33.4669 2.36978C33.4629 2.09378 33.4609 1.84778 33.4609 1.63178C33.4609 1.41578 33.4609 1.24778 33.4609 1.12778L32.0689 6.95378H31.0249L29.5309 1.12778C29.5349 1.24378 29.5389 1.41578 29.5429 1.64378C29.5469 1.86778 29.5489 2.12178 29.5489 2.40578C29.5529 2.68978 29.5509 2.98178 29.5429 3.28178C29.5389 3.57778 29.5309 3.85378 29.5189 4.10978L29.2969 8.43578H28.3189L28.7869 0.173782H30.2389L31.5769 5.83178L32.8549 0.173782H34.3189Z" fill="#0F172A"/>
<path d="M27.3996 4.31378C27.3996 5.14578 27.2856 5.88378 27.0576 6.52778C26.8336 7.16778 26.4956 7.66978 26.0436 8.03378C25.5916 8.39378 25.0296 8.57378 24.3576 8.57378C23.6896 8.57378 23.1276 8.39778 22.6716 8.04578C22.2196 7.68978 21.8796 7.19378 21.6516 6.55778C21.4276 5.92178 21.3156 5.17778 21.3156 4.32578C21.3156 3.48978 21.4276 2.74978 21.6516 2.10578C21.8796 1.46178 22.2196 0.957778 22.6716 0.593779C23.1276 0.225779 23.6896 0.0417786 24.3576 0.0417786C25.0296 0.0417786 25.5916 0.219778 26.0436 0.575778C26.4956 0.931778 26.8336 1.42978 27.0576 2.06978C27.2856 2.70978 27.3996 3.45778 27.3996 4.31378ZM26.3076 4.31378C26.3076 3.21378 26.1556 2.37178 25.8516 1.78778C25.5516 1.20378 25.0536 0.911778 24.3576 0.911778C23.6616 0.911778 23.1616 1.20578 22.8576 1.79378C22.5576 2.38178 22.4076 3.22578 22.4076 4.32578C22.4076 5.42578 22.5636 6.26378 22.8756 6.83978C23.1876 7.41178 23.6816 7.69778 24.3576 7.69778C25.0536 7.69778 25.5516 7.40978 25.8516 6.83378C26.1556 6.25378 26.3076 5.41378 26.3076 4.31378Z" fill="#0F172A"/>
<path d="M17.8583 0.0417786C18.3983 0.0417786 18.8503 0.109778 19.2143 0.245779C19.5783 0.381778 19.9243 0.581779 20.2523 0.845778L19.6703 1.52378C19.4103 1.30378 19.1343 1.14778 18.8423 1.05578C18.5543 0.959778 18.2523 0.911778 17.9363 0.911778C17.4843 0.911778 17.0663 1.01978 16.6823 1.23578C16.2983 1.44778 15.9883 1.80178 15.7523 2.29778C15.5203 2.78978 15.4043 3.45778 15.4043 4.30178C15.4043 5.12178 15.5143 5.77978 15.7343 6.27578C15.9583 6.77178 16.2603 7.12978 16.6403 7.34978C17.0203 7.56978 17.4443 7.67978 17.9123 7.67978C18.3763 7.67978 18.7563 7.60978 19.0523 7.46978C19.3523 7.32978 19.6123 7.16978 19.8323 6.98978L20.3723 7.67378C20.1203 7.91778 19.7923 8.12978 19.3883 8.30978C18.9843 8.48578 18.4883 8.57378 17.9003 8.57378C17.2323 8.57378 16.6263 8.40978 16.0823 8.08178C15.5423 7.75378 15.1143 7.27378 14.7983 6.64178C14.4823 6.00578 14.3243 5.22578 14.3243 4.30178C14.3243 3.37378 14.4843 2.59378 14.8043 1.96178C15.1283 1.32978 15.5583 0.851778 16.0943 0.527778C16.6343 0.203778 17.2223 0.0417786 17.8583 0.0417786Z" fill="#0F172A"/>
<path d="M9.06093 1.02578V3.91778H12.3009V4.75778H9.06093V8.43578H8.02893V0.173782H12.8949L12.7689 1.02578H9.06093Z" fill="#0F172A"/>
<path d="M4.69164 4.26578C4.69164 3.54578 4.61564 2.96978 4.46364 2.53778C4.31165 2.10578 4.11165 1.78178 3.86365 1.56578C3.61565 1.34978 3.34365 1.20578 3.04765 1.13378C2.75565 1.06178 2.46764 1.02578 2.18365 1.02578H1.21164V7.60178H2.19565C2.49165 7.60178 2.78565 7.55578 3.07765 7.46378C3.37365 7.36778 3.64365 7.19978 3.88765 6.95978C4.13165 6.71578 4.32565 6.37778 4.46965 5.94578C4.61765 5.50978 4.69164 4.94978 4.69164 4.26578ZM5.80165 4.26578C5.80165 4.95378 5.72764 5.54178 5.57965 6.02978C5.43565 6.51378 5.23765 6.91378 4.98565 7.22978C4.73365 7.54578 4.44565 7.79178 4.12165 7.96778C3.80165 8.13978 3.46365 8.26178 3.10765 8.33378C2.75565 8.40178 2.40965 8.43578 2.06964 8.43578H0.173645V0.173782H1.93765C2.42165 0.173782 2.89164 0.227782 3.34765 0.335783C3.80765 0.443782 4.22165 0.643783 4.58965 0.935783C4.96165 1.22378 5.25565 1.63578 5.47165 2.17178C5.69165 2.70778 5.80165 3.40578 5.80165 4.26578Z" fill="#0F172A"/>
</g>
<mask id="mask2_30_1556" style="mask-type:alpha" maskUnits="userSpaceOnUse" x="0" y="6" width="35" height="4">
<path d="M0.0924683 6.60443H34.9075V9.06046H0.0924683V6.60443Z" fill="#D9D9D9"/>
</mask>
<g mask="url(#mask2_30_1556)">
<path d="M34.3189 0.174255L34.7869 8.43625H33.7849L33.5269 4.12225C33.5149 3.83025 33.5029 3.53425 33.4909 3.23425C33.4789 2.93425 33.4709 2.64626 33.4669 2.37026C33.4629 2.09426 33.4609 1.84825 33.4609 1.63225C33.4609 1.41625 33.4609 1.24825 33.4609 1.12826L32.0689 6.95425H31.0249L29.5309 1.12826C29.5349 1.24426 29.5389 1.41625 29.5429 1.64425C29.5469 1.86825 29.5489 2.12226 29.5489 2.40626C29.5529 2.69026 29.5509 2.98225 29.5429 3.28225C29.5389 3.57825 29.5309 3.85425 29.5189 4.11025L29.2969 8.43625H28.3189L28.7869 0.174255H30.2389L31.5769 5.83225L32.8549 0.174255H34.3189Z" fill="#0F172A"/>
<path d="M27.3996 4.31382C27.3996 5.14582 27.2856 5.88382 27.0576 6.52782C26.8336 7.16782 26.4956 7.66982 26.0436 8.03382C25.5916 8.39382 25.0296 8.57382 24.3576 8.57382C23.6896 8.57382 23.1276 8.39782 22.6716 8.04582C22.2196 7.68982 21.8796 7.19382 21.6516 6.55782C21.4276 5.92182 21.3156 5.17782 21.3156 4.32582C21.3156 3.48982 21.4276 2.74982 21.6516 2.10582C21.8796 1.46182 22.2196 0.957824 22.6716 0.593824C23.1276 0.225824 23.6896 0.0418243 24.3576 0.0418243C25.0296 0.0418243 25.5916 0.219824 26.0436 0.575824C26.4956 0.931823 26.8336 1.42982 27.0576 2.06982C27.2856 2.70982 27.3996 3.45782 27.3996 4.31382ZM26.3076 4.31382C26.3076 3.21382 26.1556 2.37182 25.8516 1.78782C25.5516 1.20382 25.0536 0.911824 24.3576 0.911824C23.6616 0.911824 23.1616 1.20582 22.8576 1.79382C22.5576 2.38182 22.4076 3.22582 22.4076 4.32582C22.4076 5.42582 22.5636 6.26382 22.8756 6.83982C23.1876 7.41182 23.6816 7.69782 24.3576 7.69782C25.0536 7.69782 25.5516 7.40982 25.8516 6.83382C26.1556 6.25382 26.3076 5.41382 26.3076 4.31382Z" fill="#0F172A"/>
<path d="M17.8583 0.0418243C18.3983 0.0418243 18.8503 0.109824 19.2143 0.245824C19.5783 0.381824 19.9243 0.581824 20.2523 0.845824L19.6703 1.52382C19.4103 1.30382 19.1343 1.14782 18.8423 1.05582C18.5543 0.959824 18.2523 0.911824 17.9363 0.911824C17.4843 0.911824 17.0663 1.01982 16.6823 1.23582C16.2983 1.44782 15.9883 1.80182 15.7523 2.29782C15.5203 2.78982 15.4043 3.45782 15.4043 4.30182C15.4043 5.12182 15.5143 5.77982 15.7343 6.27582C15.9583 6.77182 16.2603 7.12982 16.6403 7.34982C17.0203 7.56982 17.4443 7.67982 17.9123 7.67982C18.3763 7.67982 18.7563 7.60982 19.0523 7.46982C19.3523 7.32982 19.6123 7.16982 19.8323 6.98982L20.3723 7.67382C20.1203 7.91782 19.7923 8.12982 19.3883 8.30982C18.9843 8.48582 18.4883 8.57382 17.9003 8.57382C17.2323 8.57382 16.6263 8.40982 16.0823 8.08182C15.5423 7.75382 15.1143 7.27382 14.7983 6.64182C14.4823 6.00582 14.3243 5.22582 14.3243 4.30182C14.3243 3.37382 14.4843 2.59382 14.8043 1.96182C15.1283 1.32982 15.5583 0.851823 16.0943 0.527823C16.6343 0.203824 17.2223 0.0418243 17.8583 0.0418243Z" fill="#0F172A"/>
<path d="M9.06093 1.02626V3.91825H12.3009V4.75825H9.06093V8.43625H8.02893V0.174255H12.8949L12.7689 1.02626H9.06093Z" fill="#0F172A"/>
<path d="M4.69164 4.26625C4.69164 3.54625 4.61564 2.97025 4.46364 2.53825C4.31165 2.10625 4.11165 1.78225 3.86365 1.56625C3.61565 1.35026 3.34365 1.20626 3.04765 1.13426C2.75565 1.06226 2.46764 1.02626 2.18365 1.02626H1.21164V7.60225H2.19565C2.49165 7.60225 2.78565 7.55625 3.07765 7.46425C3.37365 7.36825 3.64365 7.20025 3.88765 6.96025C4.13165 6.71625 4.32565 6.37825 4.46965 5.94625C4.61765 5.51025 4.69164 4.95025 4.69164 4.26625ZM5.80165 4.26625C5.80165 4.95425 5.72764 5.54225 5.57965 6.03025C5.43565 6.51425 5.23765 6.91425 4.98565 7.23025C4.73365 7.54625 4.44565 7.79225 4.12165 7.96825C3.80165 8.14025 3.46365 8.26225 3.10765 8.33425C2.75565 8.40225 2.40965 8.43625 2.06964 8.43625H0.173645V0.174255H1.93765C2.42165 0.174255 2.89164 0.228255 3.34765 0.336255C3.80765 0.444255 4.22165 0.644255 4.58965 0.936256C4.96165 1.22426 5.25565 1.63626 5.47165 2.17226C5.69165 2.70826 5.80165 3.40625 5.80165 4.26625Z" fill="#0F172A"/>
</g>
</svg>
