<svg width="35" height="10" viewBox="0 0 35 10" fill="none" xmlns="http://www.w3.org/2000/svg">
<mask id="mask0_30_1554" style="mask-type:alpha" maskUnits="userSpaceOnUse" x="0" y="0" width="35" height="2">
<path d="M0.0924683 0H34.9075V1.90916H0.0924683V0Z" fill="#D9D9D9"/>
</mask>
<g mask="url(#mask0_30_1554)">
<path d="M34.3189 0.143509L34.7869 8.40551H33.7849L33.5269 4.09151C33.5149 3.79951 33.5029 3.50351 33.4909 3.20351C33.4789 2.90351 33.4709 2.61551 33.4669 2.33951C33.4629 2.06351 33.4609 1.81751 33.4609 1.60151C33.4609 1.38551 33.4609 1.21751 33.4609 1.09751L32.0689 6.92351H31.0249L29.5309 1.09751C29.5349 1.21351 29.5389 1.38551 29.5429 1.61351C29.5469 1.83751 29.5489 2.09151 29.5489 2.37551C29.5529 2.65951 29.5509 2.95151 29.5429 3.25151C29.5389 3.54751 29.5309 3.82351 29.5189 4.07951L29.2969 8.40551H28.3189L28.7869 0.143509H30.2389L31.5769 5.80151L32.8549 0.143509H34.3189Z" fill="white"/>
<path d="M27.3996 4.28351C27.3996 5.11551 27.2856 5.85351 27.0576 6.49751C26.8336 7.13751 26.4956 7.6395 26.0436 8.0035C25.5916 8.3635 25.0296 8.54351 24.3576 8.54351C23.6896 8.54351 23.1276 8.36751 22.6716 8.0155C22.2196 7.6595 21.8796 7.16351 21.6516 6.5275C21.4276 5.8915 21.3156 5.1475 21.3156 4.2955C21.3156 3.4595 21.4276 2.71951 21.6516 2.07551C21.8796 1.43151 22.2196 0.927505 22.6716 0.563505C23.1276 0.195505 23.6896 0.0115051 24.3576 0.0115051C25.0296 0.0115051 25.5916 0.189505 26.0436 0.545505C26.4956 0.901505 26.8336 1.3995 27.0576 2.0395C27.2856 2.6795 27.3996 3.42751 27.3996 4.28351ZM26.3076 4.28351C26.3076 3.18351 26.1556 2.3415 25.8516 1.7575C25.5516 1.1735 25.0536 0.881505 24.3576 0.881505C23.6616 0.881505 23.1616 1.1755 22.8576 1.7635C22.5576 2.3515 22.4076 3.1955 22.4076 4.2955C22.4076 5.3955 22.5636 6.23351 22.8756 6.80951C23.1876 7.38151 23.6816 7.66751 24.3576 7.66751C25.0536 7.66751 25.5516 7.37951 25.8516 6.8035C26.1556 6.22351 26.3076 5.38351 26.3076 4.28351Z" fill="white"/>
<path d="M17.8583 0.0115051C18.3983 0.0115051 18.8503 0.079505 19.2143 0.215505C19.5783 0.351505 19.9243 0.551505 20.2523 0.815505L19.6703 1.4935C19.4103 1.2735 19.1343 1.11751 18.8423 1.02551C18.5543 0.929505 18.2523 0.881505 17.9363 0.881505C17.4843 0.881505 17.0663 0.989504 16.6823 1.2055C16.2983 1.4175 15.9883 1.7715 15.7523 2.2675C15.5203 2.7595 15.4043 3.42751 15.4043 4.27151C15.4043 5.09151 15.5143 5.74951 15.7343 6.24551C15.9583 6.74151 16.2603 7.0995 16.6403 7.3195C17.0203 7.53951 17.4443 7.64951 17.9123 7.64951C18.3763 7.64951 18.7563 7.57951 19.0523 7.43951C19.3523 7.29951 19.6123 7.1395 19.8323 6.95951L20.3723 7.64351C20.1203 7.88751 19.7923 8.0995 19.3883 8.2795C18.9843 8.4555 18.4883 8.54351 17.9003 8.54351C17.2323 8.54351 16.6263 8.37951 16.0823 8.05151C15.5423 7.72351 15.1143 7.2435 14.7983 6.6115C14.4823 5.9755 14.3243 5.19551 14.3243 4.27151C14.3243 3.34351 14.4843 2.5635 14.8043 1.93151C15.1283 1.2995 15.5583 0.821504 16.0943 0.497504C16.6343 0.173504 17.2223 0.0115051 17.8583 0.0115051Z" fill="white"/>
<path d="M9.06093 0.99551V3.88751H12.3009V4.72751H9.06093V8.40551H8.02893V0.143509H12.8949L12.7689 0.99551H9.06093Z" fill="white"/>
<path d="M4.69164 4.23551C4.69164 3.51551 4.61564 2.93951 4.46364 2.50751C4.31165 2.07551 4.11165 1.75151 3.86365 1.53551C3.61565 1.31951 3.34365 1.17551 3.04765 1.10351C2.75565 1.03151 2.46764 0.99551 2.18365 0.99551H1.21164V7.57151H2.19565C2.49165 7.57151 2.78565 7.52551 3.07765 7.43351C3.37365 7.33751 3.64365 7.16951 3.88765 6.92951C4.13165 6.68551 4.32565 6.34751 4.46965 5.91551C4.61765 5.47951 4.69164 4.91951 4.69164 4.23551ZM5.80165 4.23551C5.80165 4.92351 5.72764 5.51151 5.57965 5.99951C5.43565 6.48351 5.23765 6.88351 4.98565 7.19951C4.73365 7.51551 4.44565 7.76151 4.12165 7.93751C3.80165 8.10951 3.46365 8.23151 3.10765 8.30351C2.75565 8.37151 2.40965 8.40551 2.06964 8.40551H0.173645V0.143509H1.93765C2.42165 0.143509 2.89164 0.197509 3.34765 0.305509C3.80765 0.413509 4.22165 0.613509 4.58965 0.905509C4.96165 1.19351 5.25565 1.60551 5.47165 2.14151C5.69165 2.67751 5.80165 3.37551 5.80165 4.23551Z" fill="white"/>
</g>
<mask id="mask1_30_1554" style="mask-type:alpha" maskUnits="userSpaceOnUse" x="0" y="2" width="35" height="4">
<path d="M0.0924683 2.90916H34.9075V5.5742H0.0924683V2.90916Z" fill="#D9D9D9"/>
</mask>
<g mask="url(#mask1_30_1554)">
<path d="M34.3189 0.143555L34.7869 8.40556H33.7849L33.5269 4.09156C33.5149 3.79956 33.5029 3.50355 33.4909 3.20355C33.4789 2.90355 33.4709 2.61556 33.4669 2.33956C33.4629 2.06356 33.4609 1.81755 33.4609 1.60155C33.4609 1.38555 33.4609 1.21755 33.4609 1.09755L32.0689 6.92355H31.0249L29.5309 1.09755C29.5349 1.21355 29.5389 1.38555 29.5429 1.61355C29.5469 1.83755 29.5489 2.09156 29.5489 2.37556C29.5529 2.65956 29.5509 2.95156 29.5429 3.25155C29.5389 3.54755 29.5309 3.82355 29.5189 4.07956L29.2969 8.40556H28.3189L28.7869 0.143555H30.2389L31.5769 5.80156L32.8549 0.143555H34.3189Z" fill="white"/>
<path d="M27.3996 4.28355C27.3996 5.11555 27.2856 5.85355 27.0576 6.49755C26.8336 7.13755 26.4956 7.63955 26.0436 8.00355C25.5916 8.36355 25.0296 8.54355 24.3576 8.54355C23.6896 8.54355 23.1276 8.36755 22.6716 8.01555C22.2196 7.65955 21.8796 7.16355 21.6516 6.52755C21.4276 5.89155 21.3156 5.14755 21.3156 4.29555C21.3156 3.45955 21.4276 2.71955 21.6516 2.07555C21.8796 1.43155 22.2196 0.927551 22.6716 0.563551C23.1276 0.195551 23.6896 0.0115509 24.3576 0.0115509C25.0296 0.0115509 25.5916 0.18955 26.0436 0.54555C26.4956 0.90155 26.8336 1.39955 27.0576 2.03955C27.2856 2.67955 27.3996 3.42755 27.3996 4.28355ZM26.3076 4.28355C26.3076 3.18355 26.1556 2.34155 25.8516 1.75755C25.5516 1.17355 25.0536 0.881551 24.3576 0.881551C23.6616 0.881551 23.1616 1.17555 22.8576 1.76355C22.5576 2.35155 22.4076 3.19555 22.4076 4.29555C22.4076 5.39555 22.5636 6.23355 22.8756 6.80955C23.1876 7.38155 23.6816 7.66755 24.3576 7.66755C25.0536 7.66755 25.5516 7.37955 25.8516 6.80355C26.1556 6.22355 26.3076 5.38355 26.3076 4.28355Z" fill="white"/>
<path d="M17.8583 0.0115509C18.3983 0.0115509 18.8503 0.0795507 19.2143 0.215551C19.5783 0.351551 19.9243 0.551551 20.2523 0.815551L19.6703 1.49355C19.4103 1.27355 19.1343 1.11755 18.8423 1.02555C18.5543 0.929551 18.2523 0.881551 17.9363 0.881551C17.4843 0.881551 17.0663 0.98955 16.6823 1.20555C16.2983 1.41755 15.9883 1.77155 15.7523 2.26755C15.5203 2.75955 15.4043 3.42755 15.4043 4.27155C15.4043 5.09155 15.5143 5.74955 15.7343 6.24555C15.9583 6.74155 16.2603 7.09955 16.6403 7.31955C17.0203 7.53955 17.4443 7.64955 17.9123 7.64955C18.3763 7.64955 18.7563 7.57955 19.0523 7.43955C19.3523 7.29955 19.6123 7.13955 19.8323 6.95955L20.3723 7.64355C20.1203 7.88755 19.7923 8.09955 19.3883 8.27955C18.9843 8.45555 18.4883 8.54355 17.9003 8.54355C17.2323 8.54355 16.6263 8.37955 16.0823 8.05155C15.5423 7.72355 15.1143 7.24355 14.7983 6.61155C14.4823 5.97555 14.3243 5.19555 14.3243 4.27155C14.3243 3.34355 14.4843 2.56355 14.8043 1.93155C15.1283 1.29955 15.5583 0.82155 16.0943 0.49755C16.6343 0.17355 17.2223 0.0115509 17.8583 0.0115509Z" fill="white"/>
<path d="M9.06093 0.995555V3.88756H12.3009V4.72755H9.06093V8.40556H8.02893V0.143555H12.8949L12.7689 0.995555H9.06093Z" fill="white"/>
<path d="M4.69164 4.23556C4.69164 3.51556 4.61564 2.93955 4.46364 2.50755C4.31165 2.07555 4.11165 1.75155 3.86365 1.53555C3.61565 1.31955 3.34365 1.17556 3.04765 1.10356C2.75565 1.03156 2.46764 0.995555 2.18365 0.995555H1.21164V7.57156H2.19565C2.49165 7.57156 2.78565 7.52556 3.07765 7.43356C3.37365 7.33755 3.64365 7.16956 3.88765 6.92956C4.13165 6.68556 4.32565 6.34756 4.46965 5.91556C4.61765 5.47956 4.69164 4.91956 4.69164 4.23556ZM5.80165 4.23556C5.80165 4.92356 5.72764 5.51156 5.57965 5.99956C5.43565 6.48356 5.23765 6.88355 4.98565 7.19955C4.73365 7.51555 4.44565 7.76155 4.12165 7.93755C3.80165 8.10955 3.46365 8.23155 3.10765 8.30355C2.75565 8.37155 2.40965 8.40556 2.06964 8.40556H0.173645V0.143555H1.93765C2.42165 0.143555 2.89164 0.197555 3.34765 0.305555C3.80765 0.413555 4.22165 0.613555 4.58965 0.905555C4.96165 1.19355 5.25565 1.60556 5.47165 2.14156C5.69165 2.67756 5.80165 3.37556 5.80165 4.23556Z" fill="white"/>
</g>
<mask id="mask2_30_1554" style="mask-type:alpha" maskUnits="userSpaceOnUse" x="0" y="6" width="35" height="4">
<path d="M0.0924683 6.5742H34.9075V9.03023H0.0924683V6.5742Z" fill="#D9D9D9"/>
</mask>
<g mask="url(#mask2_30_1554)">
<path d="M34.3189 0.144028L34.7869 8.40603H33.7849L33.5269 4.09203C33.5149 3.80003 33.5029 3.50403 33.4909 3.20403C33.4789 2.90403 33.4709 2.61603 33.4669 2.34003C33.4629 2.06403 33.4609 1.81803 33.4609 1.60203C33.4609 1.38603 33.4609 1.21803 33.4609 1.09803L32.0689 6.92403H31.0249L29.5309 1.09803C29.5349 1.21403 29.5389 1.38603 29.5429 1.61403C29.5469 1.83803 29.5489 2.09203 29.5489 2.37603C29.5529 2.66003 29.5509 2.95203 29.5429 3.25203C29.5389 3.54803 29.5309 3.82403 29.5189 4.08003L29.2969 8.40603H28.3189L28.7869 0.144028H30.2389L31.5769 5.80203L32.8549 0.144028H34.3189Z" fill="white"/>
<path d="M27.3996 4.2836C27.3996 5.1156 27.2856 5.85359 27.0576 6.49759C26.8336 7.13759 26.4956 7.63959 26.0436 8.00359C25.5916 8.36359 25.0296 8.54359 24.3576 8.54359C23.6896 8.54359 23.1276 8.36759 22.6716 8.01559C22.2196 7.65959 21.8796 7.16359 21.6516 6.52759C21.4276 5.89159 21.3156 5.14759 21.3156 4.29559C21.3156 3.45959 21.4276 2.7196 21.6516 2.0756C21.8796 1.4316 22.2196 0.927596 22.6716 0.563597C23.1276 0.195597 23.6896 0.0115967 24.3576 0.0115967C25.0296 0.0115967 25.5916 0.189596 26.0436 0.545596C26.4956 0.901596 26.8336 1.3996 27.0576 2.03959C27.2856 2.67959 27.3996 3.4276 27.3996 4.2836ZM26.3076 4.2836C26.3076 3.1836 26.1556 2.3416 25.8516 1.7576C25.5516 1.1736 25.0536 0.881596 24.3576 0.881596C23.6616 0.881596 23.1616 1.1756 22.8576 1.7636C22.5576 2.3516 22.4076 3.1956 22.4076 4.29559C22.4076 5.39559 22.5636 6.23359 22.8756 6.80959C23.1876 7.38159 23.6816 7.66759 24.3576 7.66759C25.0536 7.66759 25.5516 7.37959 25.8516 6.80359C26.1556 6.22359 26.3076 5.38359 26.3076 4.2836Z" fill="white"/>
<path d="M17.8583 0.0115967C18.3983 0.0115967 18.8503 0.0795965 19.2143 0.215597C19.5783 0.351596 19.9243 0.551596 20.2523 0.815596L19.6703 1.4936C19.4103 1.2736 19.1343 1.1176 18.8423 1.0256C18.5543 0.929596 18.2523 0.881596 17.9363 0.881596C17.4843 0.881596 17.0663 0.989596 16.6823 1.2056C16.2983 1.4176 15.9883 1.7716 15.7523 2.2676C15.5203 2.7596 15.4043 3.4276 15.4043 4.2716C15.4043 5.0916 15.5143 5.74959 15.7343 6.24559C15.9583 6.74159 16.2603 7.09959 16.6403 7.31959C17.0203 7.53959 17.4443 7.64959 17.9123 7.64959C18.3763 7.64959 18.7563 7.57959 19.0523 7.43959C19.3523 7.29959 19.6123 7.13959 19.8323 6.95959L20.3723 7.64359C20.1203 7.88759 19.7923 8.09959 19.3883 8.27959C18.9843 8.45559 18.4883 8.54359 17.9003 8.54359C17.2323 8.54359 16.6263 8.37959 16.0823 8.05159C15.5423 7.72359 15.1143 7.24359 14.7983 6.61159C14.4823 5.97559 14.3243 5.19559 14.3243 4.2716C14.3243 3.3436 14.4843 2.5636 14.8043 1.9316C15.1283 1.2996 15.5583 0.821595 16.0943 0.497596C16.6343 0.173596 17.2223 0.0115967 17.8583 0.0115967Z" fill="white"/>
<path d="M9.06093 0.996028V3.88803H12.3009V4.72803H9.06093V8.40603H8.02893V0.144028H12.8949L12.7689 0.996028H9.06093Z" fill="white"/>
<path d="M4.69164 4.23603C4.69164 3.51603 4.61564 2.94003 4.46364 2.50803C4.31165 2.07603 4.11165 1.75203 3.86365 1.53603C3.61565 1.32003 3.34365 1.17603 3.04765 1.10403C2.75565 1.03203 2.46764 0.996028 2.18365 0.996028H1.21164V7.57203H2.19565C2.49165 7.57203 2.78565 7.52603 3.07765 7.43403C3.37365 7.33803 3.64365 7.17003 3.88765 6.93003C4.13165 6.68603 4.32565 6.34803 4.46965 5.91603C4.61765 5.48003 4.69164 4.92003 4.69164 4.23603ZM5.80165 4.23603C5.80165 4.92403 5.72764 5.51203 5.57965 6.00003C5.43565 6.48403 5.23765 6.88403 4.98565 7.20003C4.73365 7.51603 4.44565 7.76202 4.12165 7.93802C3.80165 8.11002 3.46365 8.23202 3.10765 8.30402C2.75565 8.37202 2.40965 8.40603 2.06964 8.40603H0.173645V0.144028H1.93765C2.42165 0.144028 2.89164 0.198028 3.34765 0.306028C3.80765 0.414028 4.22165 0.614028 4.58965 0.906028C4.96165 1.19403 5.25565 1.60603 5.47165 2.14203C5.69165 2.67803 5.80165 3.37603 5.80165 4.23603Z" fill="white"/>
</g>
</svg>
