<svg width="15" height="10" viewBox="0 0 15 10" fill="none" xmlns="http://www.w3.org/2000/svg">
<mask id="mask0_30_1581" style="mask-type:alpha" maskUnits="userSpaceOnUse" x="0" y="0" width="14" height="2">
<path d="M0.900635 0.0604553H13.8428V1.96962H0.900635V0.0604553Z" fill="#D9D9D9"/>
</mask>
<g mask="url(#mask0_30_1581)">
<path d="M9.8691 1.05596V3.94797H13.1091V4.78796H9.8691V8.46597H8.8371V0.203964H13.7031L13.5771 1.05596H9.8691Z" fill="#0F172A"/>
<path d="M5.49981 4.29596C5.49981 3.57596 5.42381 2.99996 5.27181 2.56796C5.11981 2.13596 4.91981 1.81196 4.67181 1.59596C4.42381 1.37996 4.15181 1.23596 3.85581 1.16396C3.56381 1.09196 3.27581 1.05596 2.99181 1.05596H2.01981V7.63197H3.00381C3.29981 7.63197 3.59381 7.58596 3.88581 7.49396C4.18181 7.39796 4.45181 7.22997 4.69581 6.98996C4.93981 6.74597 5.13381 6.40797 5.27781 5.97597C5.42581 5.53996 5.49981 4.97996 5.49981 4.29596ZM6.60981 4.29596C6.60981 4.98396 6.53581 5.57196 6.38781 6.05996C6.24381 6.54396 6.04581 6.94396 5.79381 7.25996C5.54181 7.57596 5.25381 7.82196 4.92981 7.99796C4.60981 8.16996 4.27181 8.29196 3.91581 8.36396C3.56381 8.43196 3.21781 8.46597 2.87781 8.46597H0.981812V0.203964H2.74581C3.22981 0.203964 3.69981 0.257964 4.15581 0.365964C4.61581 0.473964 5.02981 0.673965 5.39781 0.965965C5.76981 1.25396 6.06381 1.66596 6.27981 2.20196C6.49981 2.73796 6.60981 3.43596 6.60981 4.29596Z" fill="#0F172A"/>
</g>
<mask id="mask1_30_1581" style="mask-type:alpha" maskUnits="userSpaceOnUse" x="0" y="2" width="15" height="4">
<path d="M0.900635 2.96962H14.0994V5.63466H0.900635V2.96962Z" fill="#D9D9D9"/>
</mask>
<g mask="url(#mask1_30_1581)">
<path d="M9.8691 1.05601V3.94801H13.1091V4.78801H9.8691V8.46601H8.8371V0.20401H13.7031L13.5771 1.05601H9.8691Z" fill="#0F172A"/>
<path d="M5.49981 4.29601C5.49981 3.57601 5.42381 3.00001 5.27181 2.56801C5.11981 2.13601 4.91981 1.81201 4.67181 1.59601C4.42381 1.38001 4.15181 1.23601 3.85581 1.16401C3.56381 1.09201 3.27581 1.05601 2.99181 1.05601H2.01981V7.63201H3.00381C3.29981 7.63201 3.59381 7.58601 3.88581 7.49401C4.18181 7.39801 4.45181 7.23001 4.69581 6.99001C4.93981 6.74601 5.13381 6.40801 5.27781 5.97601C5.42581 5.54001 5.49981 4.98001 5.49981 4.29601ZM6.60981 4.29601C6.60981 4.98401 6.53581 5.57201 6.38781 6.06001C6.24381 6.54401 6.04581 6.94401 5.79381 7.26001C5.54181 7.57601 5.25381 7.82201 4.92981 7.99801C4.60981 8.17001 4.27181 8.29201 3.91581 8.36401C3.56381 8.43201 3.21781 8.46601 2.87781 8.46601H0.981812V0.20401H2.74581C3.22981 0.20401 3.69981 0.25801 4.15581 0.36601C4.61581 0.47401 5.02981 0.67401 5.39781 0.966011C5.76981 1.25401 6.06381 1.66601 6.27981 2.20201C6.49981 2.73801 6.60981 3.43601 6.60981 4.29601Z" fill="#0F172A"/>
</g>
<mask id="mask2_30_1581" style="mask-type:alpha" maskUnits="userSpaceOnUse" x="0" y="6" width="15" height="4">
<path d="M0.900635 6.63466H14.0994V9.09068H0.900635V6.63466Z" fill="#D9D9D9"/>
</mask>
<g mask="url(#mask2_30_1581)">
<path d="M9.8691 1.05648V3.94848H13.1091V4.78848H9.8691V8.46648H8.8371V0.204483H13.7031L13.5771 1.05648H9.8691Z" fill="#0F172A"/>
<path d="M5.49981 4.29648C5.49981 3.57648 5.42381 3.00048 5.27181 2.56848C5.11981 2.13648 4.91981 1.81248 4.67181 1.59648C4.42381 1.38048 4.15181 1.23648 3.85581 1.16448C3.56381 1.09248 3.27581 1.05648 2.99181 1.05648H2.01981V7.63248H3.00381C3.29981 7.63248 3.59381 7.58648 3.88581 7.49448C4.18181 7.39848 4.45181 7.23048 4.69581 6.99048C4.93981 6.74648 5.13381 6.40848 5.27781 5.97648C5.42581 5.54048 5.49981 4.98048 5.49981 4.29648ZM6.60981 4.29648C6.60981 4.98448 6.53581 5.57248 6.38781 6.06048C6.24381 6.54448 6.04581 6.94448 5.79381 7.26048C5.54181 7.57648 5.25381 7.82248 4.92981 7.99848C4.60981 8.17048 4.27181 8.29248 3.91581 8.36448C3.56381 8.43248 3.21781 8.46648 2.87781 8.46648H0.981812V0.204483H2.74581C3.22981 0.204483 3.69981 0.258483 4.15581 0.366483C4.61581 0.474483 5.02981 0.674483 5.39781 0.966483C5.76981 1.25448 6.06381 1.66648 6.27981 2.20248C6.49981 2.73848 6.60981 3.43648 6.60981 4.29648Z" fill="#0F172A"/>
</g>
</svg>
