<svg width="15" height="10" viewBox="0 0 15 10" fill="none" xmlns="http://www.w3.org/2000/svg">
<mask id="mask0_30_1623" style="mask-type:alpha" maskUnits="userSpaceOnUse" x="0" y="0" width="14" height="2">
<path d="M0.900635 0.090683H13.8428V1.99985H0.900635V0.090683Z" fill="#D9D9D9"/>
</mask>
<g mask="url(#mask0_30_1623)">
<path d="M9.8691 1.08619V3.97819H13.1091V4.81819H9.8691V8.49619H8.8371V0.234192H13.7031L13.5771 1.08619H9.8691Z" fill="white"/>
<path d="M5.49981 4.32619C5.49981 3.60619 5.42381 3.03019 5.27181 2.59819C5.11981 2.16619 4.91981 1.84219 4.67181 1.62619C4.42381 1.41019 4.15181 1.26619 3.85581 1.19419C3.56381 1.12219 3.27581 1.08619 2.99181 1.08619H2.01981V7.66219H3.00381C3.29981 7.66219 3.59381 7.61619 3.88581 7.52419C4.18181 7.42819 4.45181 7.26019 4.69581 7.02019C4.93981 6.77619 5.13381 6.43819 5.27781 6.00619C5.42581 5.57019 5.49981 5.01019 5.49981 4.32619ZM6.60981 4.32619C6.60981 5.01419 6.53581 5.60219 6.38781 6.09019C6.24381 6.57419 6.04581 6.97419 5.79381 7.29019C5.54181 7.60619 5.25381 7.85219 4.92981 8.02819C4.60981 8.20019 4.27181 8.32219 3.91581 8.39419C3.56381 8.46219 3.21781 8.49619 2.87781 8.49619H0.981812V0.234192H2.74581C3.22981 0.234192 3.69981 0.288192 4.15581 0.396192C4.61581 0.504192 5.02981 0.704192 5.39781 0.996192C5.76981 1.28419 6.06381 1.69619 6.27981 2.23219C6.49981 2.76819 6.60981 3.46619 6.60981 4.32619Z" fill="white"/>
</g>
<mask id="mask1_30_1623" style="mask-type:alpha" maskUnits="userSpaceOnUse" x="0" y="2" width="15" height="4">
<path d="M0.900635 2.99985H14.0994V5.66489H0.900635V2.99985Z" fill="#D9D9D9"/>
</mask>
<g mask="url(#mask1_30_1623)">
<path d="M9.8691 1.08624V3.97824H13.1091V4.81824H9.8691V8.49624H8.8371V0.234238H13.7031L13.5771 1.08624H9.8691Z" fill="white"/>
<path d="M5.49981 4.32624C5.49981 3.60624 5.42381 3.03024 5.27181 2.59824C5.11981 2.16624 4.91981 1.84224 4.67181 1.62624C4.42381 1.41024 4.15181 1.26624 3.85581 1.19424C3.56381 1.12224 3.27581 1.08624 2.99181 1.08624H2.01981V7.66224H3.00381C3.29981 7.66224 3.59381 7.61624 3.88581 7.52424C4.18181 7.42824 4.45181 7.26024 4.69581 7.02024C4.93981 6.77624 5.13381 6.43824 5.27781 6.00624C5.42581 5.57024 5.49981 5.01024 5.49981 4.32624ZM6.60981 4.32624C6.60981 5.01424 6.53581 5.60224 6.38781 6.09024C6.24381 6.57424 6.04581 6.97424 5.79381 7.29024C5.54181 7.60624 5.25381 7.85224 4.92981 8.02824C4.60981 8.20024 4.27181 8.32224 3.91581 8.39424C3.56381 8.46224 3.21781 8.49624 2.87781 8.49624H0.981812V0.234238H2.74581C3.22981 0.234238 3.69981 0.288238 4.15581 0.396238C4.61581 0.504238 5.02981 0.704238 5.39781 0.996238C5.76981 1.28424 6.06381 1.69624 6.27981 2.23224C6.49981 2.76824 6.60981 3.46624 6.60981 4.32624Z" fill="white"/>
</g>
<mask id="mask2_30_1623" style="mask-type:alpha" maskUnits="userSpaceOnUse" x="0" y="6" width="15" height="4">
<path d="M0.900635 6.66489H14.0994V9.12091H0.900635V6.66489Z" fill="#D9D9D9"/>
</mask>
<g mask="url(#mask2_30_1623)">
<path d="M9.8691 1.08671V3.97871H13.1091V4.81871H9.8691V8.49671H8.8371V0.234711H13.7031L13.5771 1.08671H9.8691Z" fill="white"/>
<path d="M5.49981 4.32671C5.49981 3.60671 5.42381 3.03071 5.27181 2.59871C5.11981 2.16671 4.91981 1.84271 4.67181 1.62671C4.42381 1.41071 4.15181 1.26671 3.85581 1.19471C3.56381 1.12271 3.27581 1.08671 2.99181 1.08671H2.01981V7.66271H3.00381C3.29981 7.66271 3.59381 7.61671 3.88581 7.52471C4.18181 7.42871 4.45181 7.26071 4.69581 7.02071C4.93981 6.77671 5.13381 6.43871 5.27781 6.00671C5.42581 5.57071 5.49981 5.01071 5.49981 4.32671ZM6.60981 4.32671C6.60981 5.01471 6.53581 5.60271 6.38781 6.09071C6.24381 6.57471 6.04581 6.97471 5.79381 7.29071C5.54181 7.60671 5.25381 7.85271 4.92981 8.02871C4.60981 8.20071 4.27181 8.32271 3.91581 8.39471C3.56381 8.46271 3.21781 8.49671 2.87781 8.49671H0.981812V0.234711H2.74581C3.22981 0.234711 3.69981 0.288711 4.15581 0.396711C4.61581 0.504711 5.02981 0.704711 5.39781 0.996711C5.76981 1.28471 6.06381 1.69671 6.27981 2.23271C6.49981 2.76871 6.60981 3.46671 6.60981 4.32671Z" fill="white"/>
</g>
</svg>
